<mxfile host="app.diagrams.net" modified="2023-11-13T12:32:16.202Z" agent="Mozilla/5.0 (Windows NT 10.0; Win64; x64) AppleWebKit/537.36 (KHTML, like Gecko) Chrome/119.0.0.0 Safari/537.36" etag="EZQc_VUm7e2TDogAb5CD" version="22.1.0" type="device">
  <diagram name="Seite-1" id="UCT9QxT9f-nRKCtBicOB">
    <mxGraphModel dx="1114" dy="737" grid="1" gridSize="10" guides="1" tooltips="1" connect="1" arrows="1" fold="1" page="1" pageScale="1" pageWidth="827" pageHeight="1169" math="0" shadow="0">
      <root>
        <mxCell id="0" />
        <mxCell id="1" parent="0" />
        <mxCell id="QJh97lIsgSTJYA66oceY-45" value="" style="html=1;points=[[0,0,0,0,5],[0,1,0,0,-5],[1,0,0,0,5],[1,1,0,0,-5]];perimeter=orthogonalPerimeter;outlineConnect=0;targetShapes=umlLifeline;portConstraint=eastwest;newEdgeStyle={&quot;curved&quot;:0,&quot;rounded&quot;:0};strokeWidth=1;fillColor=#dae8fc;strokeColor=#6c8ebf;fontSize=6;" parent="1" vertex="1">
          <mxGeometry x="30" y="150" width="10" height="920" as="geometry" />
        </mxCell>
        <mxCell id="tSBpWanuPTr_5rLlkDVL-2" value="&amp;nbsp; &amp;nbsp;Spieler&lt;span style=&quot;white-space: pre; font-size: 6px;&quot;&gt;&#x9;&lt;/span&gt;" style="shape=umlActor;verticalLabelPosition=bottom;verticalAlign=top;html=1;outlineConnect=0;strokeWidth=1;fontSize=6;" parent="1" vertex="1">
          <mxGeometry x="20" y="62" width="30" height="60" as="geometry" />
        </mxCell>
        <mxCell id="tSBpWanuPTr_5rLlkDVL-3" value="Würfeln" style="rounded=1;whiteSpace=wrap;html=1;strokeWidth=1;fontSize=6;" parent="1" vertex="1">
          <mxGeometry x="337" y="60" width="80" height="40" as="geometry" />
        </mxCell>
        <mxCell id="tSBpWanuPTr_5rLlkDVL-12" value="" style="endArrow=none;dashed=1;html=1;rounded=0;strokeWidth=1;fontSize=6;" parent="1" edge="1">
          <mxGeometry width="50" height="50" relative="1" as="geometry">
            <mxPoint x="37" y="150" as="sourcePoint" />
            <mxPoint x="37" y="150" as="targetPoint" />
          </mxGeometry>
        </mxCell>
        <mxCell id="tSBpWanuPTr_5rLlkDVL-17" value="MAEDN" style="rounded=1;whiteSpace=wrap;html=1;strokeWidth=1;fontSize=6;" parent="1" vertex="1">
          <mxGeometry x="207" y="60" width="80" height="40" as="geometry" />
        </mxCell>
        <mxCell id="tSBpWanuPTr_5rLlkDVL-19" value="Spielzug" style="text;html=1;strokeColor=none;fillColor=none;align=center;verticalAlign=middle;whiteSpace=wrap;rounded=0;fontStyle=1;labelBackgroundColor=none;labelBorderColor=none;fontSize=6;strokeWidth=1;" parent="1" vertex="1">
          <mxGeometry x="411" y="10" width="60" height="30" as="geometry" />
        </mxCell>
        <mxCell id="tSBpWanuPTr_5rLlkDVL-20" value="" style="endArrow=classic;html=1;rounded=0;exitX=1;exitY=0.5;exitDx=0;exitDy=0;strokeWidth=1;fontSize=6;" parent="1" target="QJh97lIsgSTJYA66oceY-47" edge="1">
          <mxGeometry width="50" height="50" relative="1" as="geometry">
            <mxPoint x="42" y="195" as="sourcePoint" />
            <mxPoint x="247" y="195" as="targetPoint" />
          </mxGeometry>
        </mxCell>
        <mxCell id="tSBpWanuPTr_5rLlkDVL-22" value="figure: Figure" style="rounded=1;whiteSpace=wrap;html=1;strokeWidth=1;fontSize=6;" parent="1" vertex="1">
          <mxGeometry x="467" y="60" width="80" height="40" as="geometry" />
        </mxCell>
        <mxCell id="tSBpWanuPTr_5rLlkDVL-23" value="" style="endArrow=none;html=1;rounded=0;entryX=0.5;entryY=1;entryDx=0;entryDy=0;dashed=1;strokeWidth=1;fontSize=6;" parent="1" target="tSBpWanuPTr_5rLlkDVL-17" edge="1">
          <mxGeometry width="50" height="50" relative="1" as="geometry">
            <mxPoint x="247" y="240" as="sourcePoint" />
            <mxPoint x="287" y="160" as="targetPoint" />
          </mxGeometry>
        </mxCell>
        <mxCell id="tSBpWanuPTr_5rLlkDVL-24" value="" style="endArrow=none;html=1;rounded=0;entryX=0.5;entryY=1;entryDx=0;entryDy=0;dashed=1;strokeWidth=1;fontSize=6;" parent="1" edge="1">
          <mxGeometry width="50" height="50" relative="1" as="geometry">
            <mxPoint x="377" y="265" as="sourcePoint" />
            <mxPoint x="377" y="100" as="targetPoint" />
          </mxGeometry>
        </mxCell>
        <mxCell id="tSBpWanuPTr_5rLlkDVL-25" value="" style="endArrow=none;html=1;rounded=0;entryX=0.5;entryY=1;entryDx=0;entryDy=0;dashed=1;strokeWidth=1;fontSize=6;" parent="1" edge="1">
          <mxGeometry width="50" height="50" relative="1" as="geometry">
            <mxPoint x="507" y="1160" as="sourcePoint" />
            <mxPoint x="506.62" y="100" as="targetPoint" />
          </mxGeometry>
        </mxCell>
        <mxCell id="tSBpWanuPTr_5rLlkDVL-26" value="&lt;font style=&quot;font-size: 6px;&quot;&gt;1. Startet Spiel und macht Spielzug&lt;/font&gt;" style="text;html=1;strokeColor=none;fillColor=none;align=center;verticalAlign=middle;whiteSpace=wrap;rounded=0;fontSize=6;strokeWidth=1;" parent="1" vertex="1">
          <mxGeometry x="57" y="170" width="180" height="20" as="geometry" />
        </mxCell>
        <mxCell id="tSBpWanuPTr_5rLlkDVL-29" value="" style="endArrow=none;html=1;rounded=0;entryX=0.5;entryY=1;entryDx=0;entryDy=0;dashed=1;strokeWidth=1;fontSize=6;" parent="1" edge="1">
          <mxGeometry width="50" height="50" relative="1" as="geometry">
            <mxPoint x="247" y="1160" as="sourcePoint" />
            <mxPoint x="247" y="250" as="targetPoint" />
          </mxGeometry>
        </mxCell>
        <mxCell id="tSBpWanuPTr_5rLlkDVL-31" value="" style="endArrow=none;html=1;rounded=0;entryX=0.5;entryY=1;entryDx=0;entryDy=0;dashed=1;strokeWidth=1;fontSize=6;" parent="1" edge="1">
          <mxGeometry width="50" height="50" relative="1" as="geometry">
            <mxPoint x="377" y="1160" as="sourcePoint" />
            <mxPoint x="377" y="275" as="targetPoint" />
          </mxGeometry>
        </mxCell>
        <mxCell id="tSBpWanuPTr_5rLlkDVL-37" value="" style="endArrow=classic;html=1;rounded=0;strokeWidth=1;fontSize=6;" parent="1" edge="1">
          <mxGeometry width="50" height="50" relative="1" as="geometry">
            <mxPoint x="252" y="240" as="sourcePoint" />
            <mxPoint x="372" y="240" as="targetPoint" />
          </mxGeometry>
        </mxCell>
        <mxCell id="tSBpWanuPTr_5rLlkDVL-36" value="&lt;font style=&quot;font-size: 6px;&quot;&gt;1.1 Es wird gewürfelt&lt;/font&gt;" style="text;html=1;strokeColor=none;fillColor=none;align=center;verticalAlign=middle;whiteSpace=wrap;rounded=0;fontSize=6;strokeWidth=1;" parent="1" vertex="1">
          <mxGeometry x="252" y="230" width="116" height="10" as="geometry" />
        </mxCell>
        <mxCell id="tSBpWanuPTr_5rLlkDVL-38" value="" style="endArrow=open;html=1;rounded=0;exitX=1;exitY=1;exitDx=0;exitDy=0;dashed=1;dashPattern=8 8;strokeWidth=1;endFill=0;fontSize=6;" parent="1" target="QJh97lIsgSTJYA66oceY-47" edge="1">
          <mxGeometry width="50" height="50" relative="1" as="geometry">
            <mxPoint x="370.9999999999999" y="270.00000000000006" as="sourcePoint" />
            <mxPoint x="247" y="270" as="targetPoint" />
          </mxGeometry>
        </mxCell>
        <mxCell id="tSBpWanuPTr_5rLlkDVL-41" value="" style="endArrow=classic;html=1;rounded=0;strokeWidth=1;fontSize=6;" parent="1" edge="1">
          <mxGeometry width="50" height="50" relative="1" as="geometry">
            <mxPoint x="252" y="521" as="sourcePoint" />
            <mxPoint x="502" y="521" as="targetPoint" />
          </mxGeometry>
        </mxCell>
        <mxCell id="tSBpWanuPTr_5rLlkDVL-42" value="&lt;font style=&quot;font-size: 6px;&quot;&gt;4.1 Wahl der Figur&lt;/font&gt;" style="text;html=1;strokeColor=none;fillColor=none;align=center;verticalAlign=middle;whiteSpace=wrap;rounded=0;fontSize=6;strokeWidth=1;" parent="1" vertex="1">
          <mxGeometry x="259.5" y="506" width="116" height="17" as="geometry" />
        </mxCell>
        <mxCell id="tSBpWanuPTr_5rLlkDVL-44" value="" style="endArrow=open;html=1;rounded=0;dashed=1;dashPattern=8 8;strokeWidth=1;endFill=0;fontSize=6;" parent="1" edge="1">
          <mxGeometry width="50" height="50" relative="1" as="geometry">
            <mxPoint x="632" y="584.5" as="sourcePoint" />
            <mxPoint x="252" y="584.5" as="targetPoint" />
          </mxGeometry>
        </mxCell>
        <mxCell id="tSBpWanuPTr_5rLlkDVL-46" value="" style="endArrow=classic;html=1;rounded=0;strokeWidth=1;fontSize=6;" parent="1" edge="1">
          <mxGeometry width="50" height="50" relative="1" as="geometry">
            <mxPoint x="252" y="568" as="sourcePoint" />
            <mxPoint x="632" y="568" as="targetPoint" />
          </mxGeometry>
        </mxCell>
        <mxCell id="tSBpWanuPTr_5rLlkDVL-47" value="&lt;font style=&quot;font-size: 6px;&quot;&gt;4.3 Aufruf der Aktuellen Position der Figur&lt;/font&gt;" style="text;html=1;strokeColor=none;fillColor=none;align=center;verticalAlign=middle;whiteSpace=wrap;rounded=0;fontSize=6;strokeWidth=1;" parent="1" vertex="1">
          <mxGeometry x="360" y="558" width="206" height="8" as="geometry" />
        </mxCell>
        <mxCell id="tSBpWanuPTr_5rLlkDVL-48" value="&lt;font style=&quot;font-size: 6px;&quot;&gt;4.4 Rückgabe der Position&lt;/font&gt;" style="text;html=1;strokeColor=none;fillColor=none;align=center;verticalAlign=middle;whiteSpace=wrap;rounded=0;fontSize=6;strokeWidth=1;" parent="1" vertex="1">
          <mxGeometry x="356" y="572" width="146" height="12" as="geometry" />
        </mxCell>
        <mxCell id="tSBpWanuPTr_5rLlkDVL-49" value="" style="endArrow=classic;html=1;rounded=0;exitX=1;exitY=0.5;exitDx=0;exitDy=0;strokeWidth=1;fontSize=6;" parent="1" target="QJh97lIsgSTJYA66oceY-54" edge="1">
          <mxGeometry width="50" height="50" relative="1" as="geometry">
            <mxPoint x="245" y="609" as="sourcePoint" />
            <mxPoint x="636" y="609" as="targetPoint" />
          </mxGeometry>
        </mxCell>
        <mxCell id="tSBpWanuPTr_5rLlkDVL-50" value="field: Field" style="rounded=1;whiteSpace=wrap;html=1;strokeWidth=1;fontSize=6;" parent="1" vertex="1">
          <mxGeometry x="597" y="60" width="80" height="40" as="geometry" />
        </mxCell>
        <mxCell id="tSBpWanuPTr_5rLlkDVL-51" value="" style="endArrow=none;html=1;rounded=0;entryX=0.5;entryY=1;entryDx=0;entryDy=0;dashed=1;strokeWidth=1;fontSize=6;" parent="1" edge="1">
          <mxGeometry width="50" height="50" relative="1" as="geometry">
            <mxPoint x="637" y="1160" as="sourcePoint" />
            <mxPoint x="636.58" y="102" as="targetPoint" />
          </mxGeometry>
        </mxCell>
        <mxCell id="tSBpWanuPTr_5rLlkDVL-54" value="&lt;font style=&quot;font-size: 6px;&quot;&gt;5. Auf&amp;nbsp; Kollision prüfen&lt;/font&gt;" style="text;html=1;strokeColor=none;fillColor=none;align=center;verticalAlign=middle;whiteSpace=wrap;rounded=0;fontSize=6;strokeWidth=1;" parent="1" vertex="1">
          <mxGeometry x="386" y="594" width="116" height="19" as="geometry" />
        </mxCell>
        <mxCell id="tSBpWanuPTr_5rLlkDVL-56" value="&lt;font style=&quot;font-size: 6px;&quot;&gt;5.1.2 Wähle Figur auf dem betreffenden Feld aus&lt;/font&gt;" style="text;html=1;strokeColor=none;fillColor=none;align=center;verticalAlign=middle;whiteSpace=wrap;rounded=0;fontSize=6;strokeWidth=1;" parent="1" vertex="1">
          <mxGeometry x="667" y="653" width="103" height="80" as="geometry" />
        </mxCell>
        <mxCell id="tSBpWanuPTr_5rLlkDVL-59" value="&lt;font style=&quot;font-size: 6px;&quot;&gt;4.2 Rückgabe der ausgewählten Figur&lt;/font&gt;" style="text;html=1;strokeColor=none;fillColor=none;align=center;verticalAlign=middle;whiteSpace=wrap;rounded=0;fontSize=6;strokeWidth=1;" parent="1" vertex="1">
          <mxGeometry x="266.5" y="526" width="184.5" height="16" as="geometry" />
        </mxCell>
        <mxCell id="tSBpWanuPTr_5rLlkDVL-74" value="" style="endArrow=open;html=1;rounded=0;strokeWidth=1;endFill=0;fontSize=6;" parent="1" edge="1">
          <mxGeometry width="50" height="50" relative="1" as="geometry">
            <mxPoint x="636" y="985" as="sourcePoint" />
            <mxPoint x="252" y="985" as="targetPoint" />
          </mxGeometry>
        </mxCell>
        <mxCell id="tSBpWanuPTr_5rLlkDVL-76" value="&lt;font style=&quot;font-size: 6px;&quot;&gt;5.2.2Gibt nachfolgendes Feld zurück&lt;/font&gt;" style="text;html=1;strokeColor=none;fillColor=none;align=center;verticalAlign=middle;whiteSpace=wrap;rounded=0;fontSize=6;strokeWidth=1;" parent="1" vertex="1">
          <mxGeometry x="380" y="929" width="116" height="80" as="geometry" />
        </mxCell>
        <mxCell id="tSBpWanuPTr_5rLlkDVL-78" value="" style="endArrow=open;html=1;curved=1;strokeWidth=1;endFill=0;dashed=1;dashPattern=8 8;fontSize=6;" parent="1" target="QJh97lIsgSTJYA66oceY-54" edge="1">
          <mxGeometry width="50" height="50" relative="1" as="geometry">
            <mxPoint x="643" y="633.5000000000002" as="sourcePoint" />
            <mxPoint x="648" y="643" as="targetPoint" />
            <Array as="points">
              <mxPoint x="667" y="634" />
              <mxPoint x="678" y="643" />
            </Array>
          </mxGeometry>
        </mxCell>
        <mxCell id="tSBpWanuPTr_5rLlkDVL-80" value="" style="endArrow=classic;html=1;curved=1;strokeWidth=1;fontSize=6;" parent="1" source="QJh97lIsgSTJYA66oceY-54" edge="1">
          <mxGeometry width="50" height="50" relative="1" as="geometry">
            <mxPoint x="642" y="677.9999999999999" as="sourcePoint" />
            <mxPoint x="648" y="682.0000000000001" as="targetPoint" />
            <Array as="points">
              <mxPoint x="687" y="669" />
            </Array>
          </mxGeometry>
        </mxCell>
        <mxCell id="tSBpWanuPTr_5rLlkDVL-87" value="&lt;font style=&quot;font-size: 6px;&quot;&gt;5.1.3&amp;nbsp; Gib ausgewählte Figur zurück&lt;/font&gt;" style="text;html=1;strokeColor=none;fillColor=none;align=center;verticalAlign=middle;whiteSpace=wrap;rounded=0;fontSize=6;strokeWidth=1;" parent="1" vertex="1">
          <mxGeometry x="667" y="721" width="90" height="80" as="geometry" />
        </mxCell>
        <mxCell id="tSBpWanuPTr_5rLlkDVL-88" value="" style="endArrow=openThin;html=1;rounded=0;endFill=0;strokeWidth=1;dashed=1;dashPattern=8 8;fontSize=6;" parent="1" source="QJh97lIsgSTJYA66oceY-54" target="QJh97lIsgSTJYA66oceY-57" edge="1">
          <mxGeometry width="50" height="50" relative="1" as="geometry">
            <mxPoint x="636" y="784" as="sourcePoint" />
            <mxPoint x="507" y="784" as="targetPoint" />
          </mxGeometry>
        </mxCell>
        <mxCell id="tSBpWanuPTr_5rLlkDVL-89" value="&lt;font style=&quot;font-size: 6px;&quot;&gt;5.1.4 Geschlagene Figur auf dem Feld wird zurück gestellt&lt;/font&gt;" style="text;html=1;strokeColor=none;fillColor=none;align=center;verticalAlign=middle;whiteSpace=wrap;rounded=0;fontSize=6;strokeWidth=1;" parent="1" vertex="1">
          <mxGeometry x="520" y="708" width="97" height="90" as="geometry" />
        </mxCell>
        <mxCell id="tSBpWanuPTr_5rLlkDVL-90" value="" style="endArrow=openThin;html=1;rounded=0;endFill=0;strokeWidth=1;dashed=1;dashPattern=8 8;fontSize=6;" parent="1" edge="1">
          <mxGeometry width="50" height="50" relative="1" as="geometry">
            <mxPoint x="632" y="819" as="sourcePoint" />
            <mxPoint x="512" y="819" as="targetPoint" />
          </mxGeometry>
        </mxCell>
        <mxCell id="tSBpWanuPTr_5rLlkDVL-92" value="&lt;font style=&quot;font-size: 6px;&quot;&gt;5.1.5 Schlagende Figur auf Feld setzen&lt;/font&gt;" style="text;html=1;strokeColor=none;fillColor=none;align=center;verticalAlign=middle;whiteSpace=wrap;rounded=0;fontSize=6;strokeWidth=1;" parent="1" vertex="1">
          <mxGeometry x="517" y="767" width="110" height="80" as="geometry" />
        </mxCell>
        <mxCell id="tSBpWanuPTr_5rLlkDVL-95" value="" style="endArrow=open;html=1;rounded=0;endFill=0;strokeWidth=1;fontSize=6;" parent="1" edge="1">
          <mxGeometry width="50" height="50" relative="1" as="geometry">
            <mxPoint x="632" y="859.5000000000001" as="sourcePoint" />
            <mxPoint x="252" y="859.5000000000001" as="targetPoint" />
          </mxGeometry>
        </mxCell>
        <mxCell id="tSBpWanuPTr_5rLlkDVL-96" value="&lt;font style=&quot;font-size: 6px;&quot;&gt;5.1.6 Neue Position wird zurückgegeben&lt;/font&gt;" style="text;html=1;strokeColor=none;fillColor=none;align=center;verticalAlign=middle;whiteSpace=wrap;rounded=0;fontSize=6;strokeWidth=1;" parent="1" vertex="1">
          <mxGeometry x="310" y="850" width="207" height="8" as="geometry" />
        </mxCell>
        <mxCell id="tSBpWanuPTr_5rLlkDVL-100" value="" style="endArrow=open;html=1;rounded=0;strokeWidth=1;endFill=0;fontSize=6;" parent="1" target="QJh97lIsgSTJYA66oceY-62" edge="1">
          <mxGeometry width="50" height="50" relative="1" as="geometry">
            <mxPoint x="636.5" y="957" as="sourcePoint" />
            <mxPoint x="507.5" y="957" as="targetPoint" />
          </mxGeometry>
        </mxCell>
        <mxCell id="tSBpWanuPTr_5rLlkDVL-101" value="&lt;font style=&quot;font-size: 6px;&quot;&gt;5.2.1 Figur auf Feld setzen&lt;/font&gt;" style="text;html=1;strokeColor=none;fillColor=none;align=center;verticalAlign=middle;whiteSpace=wrap;rounded=0;fontSize=6;strokeWidth=1;" parent="1" vertex="1">
          <mxGeometry x="517" y="920" width="110" height="39" as="geometry" />
        </mxCell>
        <mxCell id="tSBpWanuPTr_5rLlkDVL-105" value="" style="endArrow=open;html=1;curved=1;entryX=1;entryY=1;entryDx=0;entryDy=-5;entryPerimeter=0;strokeWidth=1;dashed=1;dashPattern=8 8;endFill=0;fontSize=6;" parent="1" edge="1">
          <mxGeometry width="50" height="50" relative="1" as="geometry">
            <mxPoint x="642" y="910" as="sourcePoint" />
            <mxPoint x="642" y="940" as="targetPoint" />
            <Array as="points">
              <mxPoint x="677" y="917" />
            </Array>
          </mxGeometry>
        </mxCell>
        <mxCell id="tSBpWanuPTr_5rLlkDVL-106" value="&lt;font style=&quot;font-size: 6px;&quot;&gt;5.1.1 Nachfolgendes Feld belegt&lt;/font&gt;" style="text;html=1;strokeColor=none;fillColor=none;align=center;verticalAlign=middle;whiteSpace=wrap;rounded=0;fontSize=6;strokeWidth=1;" parent="1" vertex="1">
          <mxGeometry x="677" y="620" width="93" height="60" as="geometry" />
        </mxCell>
        <mxCell id="tSBpWanuPTr_5rLlkDVL-112" value="&lt;font style=&quot;font-size: 6px;&quot;&gt;5.2 Nachfolgendes Feld ist frei&lt;/font&gt;" style="text;html=1;strokeColor=none;fillColor=none;align=center;verticalAlign=middle;whiteSpace=wrap;rounded=0;fontSize=6;strokeWidth=1;" parent="1" vertex="1">
          <mxGeometry x="664" y="896" width="86" height="61" as="geometry" />
        </mxCell>
        <mxCell id="tSBpWanuPTr_5rLlkDVL-114" value="&lt;font style=&quot;font-size: 6px;&quot;&gt;5.1.7 Spielzug beendet&lt;/font&gt;" style="text;html=1;strokeColor=none;fillColor=none;align=center;verticalAlign=middle;whiteSpace=wrap;rounded=0;fontSize=6;strokeWidth=1;" parent="1" vertex="1">
          <mxGeometry x="47" y="847" width="180" height="10" as="geometry" />
        </mxCell>
        <mxCell id="QJh97lIsgSTJYA66oceY-1" value="" style="endArrow=classicThin;html=1;rounded=0;endFill=1;strokeWidth=1;fontSize=6;" parent="1" edge="1">
          <mxGeometry width="50" height="50" relative="1" as="geometry">
            <mxPoint x="252" y="304" as="sourcePoint" />
            <mxPoint x="502" y="304" as="targetPoint" />
          </mxGeometry>
        </mxCell>
        <mxCell id="QJh97lIsgSTJYA66oceY-28" value="" style="endArrow=open;html=1;rounded=0;dashed=1;strokeWidth=1;dashPattern=8 8;endFill=0;fontSize=6;" parent="1" edge="1">
          <mxGeometry width="50" height="50" relative="1" as="geometry">
            <mxPoint x="502" y="352" as="sourcePoint" />
            <mxPoint x="252" y="352" as="targetPoint" />
          </mxGeometry>
        </mxCell>
        <mxCell id="QJh97lIsgSTJYA66oceY-35" value="" style="endArrow=classic;html=1;rounded=0;strokeWidth=1;fontSize=6;" parent="1" edge="1">
          <mxGeometry width="50" height="50" relative="1" as="geometry">
            <mxPoint x="252" y="402" as="sourcePoint" />
            <mxPoint x="632" y="402" as="targetPoint" />
          </mxGeometry>
        </mxCell>
        <mxCell id="QJh97lIsgSTJYA66oceY-36" value="&lt;font style=&quot;font-size: 6px;&quot;&gt;3.1.2 Figur auf Spielfeld setzen&lt;/font&gt;" style="text;html=1;strokeColor=none;fillColor=none;align=center;verticalAlign=middle;whiteSpace=wrap;rounded=0;fontSize=6;strokeWidth=1;" parent="1" vertex="1">
          <mxGeometry x="377" y="392" width="153" height="10" as="geometry" />
        </mxCell>
        <mxCell id="QJh97lIsgSTJYA66oceY-38" value="" style="endArrow=open;html=1;rounded=0;dashed=1;dashPattern=8 8;strokeWidth=1;endFill=0;fontSize=6;" parent="1" edge="1">
          <mxGeometry width="50" height="50" relative="1" as="geometry">
            <mxPoint x="632" y="420" as="sourcePoint" />
            <mxPoint x="252" y="420" as="targetPoint" />
          </mxGeometry>
        </mxCell>
        <mxCell id="QJh97lIsgSTJYA66oceY-40" value="&lt;font style=&quot;font-size: 6px;&quot;&gt;3.1.3 Neue Position wird zurückgegeben&lt;/font&gt;" style="text;html=1;strokeColor=none;fillColor=none;align=center;verticalAlign=middle;whiteSpace=wrap;rounded=0;fontSize=6;strokeWidth=1;" parent="1" vertex="1">
          <mxGeometry x="351" y="404" width="199" height="20" as="geometry" />
        </mxCell>
        <mxCell id="QJh97lIsgSTJYA66oceY-41" value="" style="endArrow=none;dashed=1;html=1;rounded=0;exitX=0.001;exitY=0.158;exitDx=0;exitDy=0;exitPerimeter=0;strokeWidth=1;fontSize=6;" parent="1" edge="1">
          <mxGeometry width="50" height="50" relative="1" as="geometry">
            <mxPoint x="20.92700000000002" y="485.6" as="sourcePoint" />
            <mxPoint x="950" y="484" as="targetPoint" />
          </mxGeometry>
        </mxCell>
        <mxCell id="QJh97lIsgSTJYA66oceY-42" value="" style="endArrow=open;html=1;rounded=0;dashed=1;dashPattern=8 8;strokeWidth=1;endFill=0;fontSize=6;" parent="1" edge="1">
          <mxGeometry width="50" height="50" relative="1" as="geometry">
            <mxPoint x="502" y="540" as="sourcePoint" />
            <mxPoint x="252" y="540" as="targetPoint" />
          </mxGeometry>
        </mxCell>
        <mxCell id="QJh97lIsgSTJYA66oceY-44" value="" style="endArrow=none;dashed=1;html=1;rounded=0;strokeWidth=1;fontSize=6;" parent="1" edge="1">
          <mxGeometry width="50" height="50" relative="1" as="geometry">
            <mxPoint x="37" y="190" as="sourcePoint" />
            <mxPoint x="37" y="190" as="targetPoint" />
          </mxGeometry>
        </mxCell>
        <mxCell id="QJh97lIsgSTJYA66oceY-48" value="" style="html=1;points=[[0,0,0,0,5],[0,1,0,0,-5],[1,0,0,0,5],[1,1,0,0,-5]];perimeter=orthogonalPerimeter;outlineConnect=0;targetShapes=umlLifeline;portConstraint=eastwest;newEdgeStyle={&quot;curved&quot;:0,&quot;rounded&quot;:0};strokeWidth=1;fillColor=#dae8fc;strokeColor=#6c8ebf;fontSize=6;" parent="1" vertex="1">
          <mxGeometry x="372" y="240" width="10" height="30" as="geometry" />
        </mxCell>
        <mxCell id="QJh97lIsgSTJYA66oceY-49" value="" style="html=1;points=[[0,0,0,0,5],[0,1,0,0,-5],[1,0,0,0,5],[1,1,0,0,-5]];perimeter=orthogonalPerimeter;outlineConnect=0;targetShapes=umlLifeline;portConstraint=eastwest;newEdgeStyle={&quot;curved&quot;:0,&quot;rounded&quot;:0};strokeWidth=1;fillColor=#dae8fc;strokeColor=#6c8ebf;fontSize=6;" parent="1" vertex="1">
          <mxGeometry x="502" y="296" width="10" height="64" as="geometry" />
        </mxCell>
        <mxCell id="QJh97lIsgSTJYA66oceY-51" value="" style="html=1;points=[[0,0,0,0,5],[0,1,0,0,-5],[1,0,0,0,5],[1,1,0,0,-5]];perimeter=orthogonalPerimeter;outlineConnect=0;targetShapes=umlLifeline;portConstraint=eastwest;newEdgeStyle={&quot;curved&quot;:0,&quot;rounded&quot;:0};strokeWidth=1;fillColor=#dae8fc;strokeColor=#6c8ebf;fontSize=6;" parent="1" vertex="1">
          <mxGeometry x="632" y="370" width="10" height="80" as="geometry" />
        </mxCell>
        <mxCell id="QJh97lIsgSTJYA66oceY-54" value="" style="html=1;points=[[0,0,0,0,5],[0,1,0,0,-5],[1,0,0,0,5],[1,1,0,0,-5]];perimeter=orthogonalPerimeter;outlineConnect=0;targetShapes=umlLifeline;portConstraint=eastwest;newEdgeStyle={&quot;curved&quot;:0,&quot;rounded&quot;:0};strokeWidth=1;fillColor=#dae8fc;strokeColor=#6c8ebf;fontSize=6;" parent="1" vertex="1">
          <mxGeometry x="632" y="559" width="10" height="311" as="geometry" />
        </mxCell>
        <mxCell id="QJh97lIsgSTJYA66oceY-56" value="" style="html=1;points=[[0,0,0,0,5],[0,1,0,0,-5],[1,0,0,0,5],[1,1,0,0,-5]];perimeter=orthogonalPerimeter;outlineConnect=0;targetShapes=umlLifeline;portConstraint=eastwest;newEdgeStyle={&quot;curved&quot;:0,&quot;rounded&quot;:0};strokeWidth=1;fillColor=#dae8fc;strokeColor=#6c8ebf;fontSize=6;" parent="1" vertex="1">
          <mxGeometry x="638" y="680" width="10" height="101" as="geometry" />
        </mxCell>
        <mxCell id="QJh97lIsgSTJYA66oceY-57" value="" style="html=1;points=[[0,0,0,0,5],[0,1,0,0,-5],[1,0,0,0,5],[1,1,0,0,-5]];perimeter=orthogonalPerimeter;outlineConnect=0;targetShapes=umlLifeline;portConstraint=eastwest;newEdgeStyle={&quot;curved&quot;:0,&quot;rounded&quot;:0};strokeWidth=1;fillColor=#dae8fc;strokeColor=#6c8ebf;fontSize=6;" parent="1" vertex="1">
          <mxGeometry x="502" y="779" width="10" height="51" as="geometry" />
        </mxCell>
        <mxCell id="QJh97lIsgSTJYA66oceY-59" value="" style="html=1;points=[[0,0,0,0,5],[0,1,0,0,-5],[1,0,0,0,5],[1,1,0,0,-5]];perimeter=orthogonalPerimeter;outlineConnect=0;targetShapes=umlLifeline;portConstraint=eastwest;newEdgeStyle={&quot;curved&quot;:0,&quot;rounded&quot;:0};strokeWidth=1;fillColor=#dae8fc;strokeColor=#6c8ebf;fontSize=6;" parent="1" vertex="1">
          <mxGeometry x="632" y="920" width="10" height="50" as="geometry" />
        </mxCell>
        <mxCell id="QJh97lIsgSTJYA66oceY-47" value="" style="html=1;points=[[0,0,0,0,5],[0,1,0,0,-5],[1,0,0,0,5],[1,1,0,0,-5]];perimeter=orthogonalPerimeter;outlineConnect=0;targetShapes=umlLifeline;portConstraint=eastwest;newEdgeStyle={&quot;curved&quot;:0,&quot;rounded&quot;:0};strokeWidth=1;fillColor=#dae8fc;strokeColor=#6c8ebf;fontSize=6;" parent="1" vertex="1">
          <mxGeometry x="242" y="190" width="10" height="880" as="geometry" />
        </mxCell>
        <mxCell id="QJh97lIsgSTJYA66oceY-26" value="alt" style="shape=umlFrame;whiteSpace=wrap;html=1;pointerEvents=0;strokeWidth=1;fontSize=6;" parent="1" vertex="1">
          <mxGeometry x="230" y="629" width="547" height="401" as="geometry" />
        </mxCell>
        <mxCell id="tSBpWanuPTr_5rLlkDVL-107" value="" style="endArrow=none;dashed=1;html=1;rounded=0;exitX=0;exitY=0.67;exitDx=0;exitDy=0;exitPerimeter=0;strokeWidth=1;entryX=1.001;entryY=0.671;entryDx=0;entryDy=0;entryPerimeter=0;endSize=9;fontSize=6;" parent="1" source="QJh97lIsgSTJYA66oceY-26" target="QJh97lIsgSTJYA66oceY-26" edge="1">
          <mxGeometry width="50" height="50" relative="1" as="geometry">
            <mxPoint x="177" y="890.7" as="sourcePoint" />
            <mxPoint x="784.56" y="894.1200000000001" as="targetPoint" />
          </mxGeometry>
        </mxCell>
        <mxCell id="QJh97lIsgSTJYA66oceY-62" value="" style="html=1;points=[[0,0,0,0,5],[0,1,0,0,-5],[1,0,0,0,5],[1,1,0,0,-5]];perimeter=orthogonalPerimeter;outlineConnect=0;targetShapes=umlLifeline;portConstraint=eastwest;newEdgeStyle={&quot;curved&quot;:0,&quot;rounded&quot;:0};strokeWidth=1;fillColor=#dae8fc;strokeColor=#6c8ebf;fontSize=6;" parent="1" vertex="1">
          <mxGeometry x="502" y="948" width="10" height="21" as="geometry" />
        </mxCell>
        <mxCell id="QJh97lIsgSTJYA66oceY-63" value="" style="endArrow=open;html=1;rounded=0;strokeWidth=1;endFill=0;fontSize=6;" parent="1" edge="1">
          <mxGeometry width="50" height="50" relative="1" as="geometry">
            <mxPoint x="242" y="426" as="sourcePoint" />
            <mxPoint x="40" y="426" as="targetPoint" />
          </mxGeometry>
        </mxCell>
        <mxCell id="QJh97lIsgSTJYA66oceY-64" value="&lt;font style=&quot;font-size: 6px;&quot;&gt;3.1.4 Spielzug beendet&lt;/font&gt;" style="text;html=1;strokeColor=none;fillColor=none;align=center;verticalAlign=middle;whiteSpace=wrap;rounded=0;fontSize=6;strokeWidth=1;" parent="1" vertex="1">
          <mxGeometry x="57" y="414" width="133" height="10" as="geometry" />
        </mxCell>
        <mxCell id="m1vEcAskR3YBs9L6EBWT-1" value="&lt;font style=&quot;font-size: 6px;&quot;&gt;1.2Augenzahl wird zurückgegeben&lt;/font&gt;" style="text;html=1;align=center;verticalAlign=middle;resizable=0;points=[];autosize=1;strokeColor=none;fillColor=none;fontSize=6;" parent="1" vertex="1">
          <mxGeometry x="251" y="244" width="120" height="20" as="geometry" />
        </mxCell>
        <mxCell id="m1vEcAskR3YBs9L6EBWT-8" value="&lt;font style=&quot;font-size: 6px;&quot;&gt;4. Rückgabe, dass alle Figuren auf dem Feld sind&amp;nbsp;&lt;/font&gt;" style="text;html=1;strokeColor=none;fillColor=none;align=center;verticalAlign=middle;whiteSpace=wrap;rounded=0;fontSize=6;strokeWidth=1;" parent="1" vertex="1">
          <mxGeometry x="249" y="489" width="254" height="10" as="geometry" />
        </mxCell>
        <mxCell id="m1vEcAskR3YBs9L6EBWT-9" value="" style="endArrow=open;html=1;rounded=0;dashed=1;strokeWidth=1;dashPattern=8 8;endFill=0;fontSize=6;" parent="1" edge="1">
          <mxGeometry width="50" height="50" relative="1" as="geometry">
            <mxPoint x="501" y="503" as="sourcePoint" />
            <mxPoint x="251" y="503" as="targetPoint" />
          </mxGeometry>
        </mxCell>
        <mxCell id="QJh97lIsgSTJYA66oceY-52" value="" style="html=1;points=[[0,0,0,0,5],[0,1,0,0,-5],[1,0,0,0,5],[1,1,0,0,-5]];perimeter=orthogonalPerimeter;outlineConnect=0;targetShapes=umlLifeline;portConstraint=eastwest;newEdgeStyle={&quot;curved&quot;:0,&quot;rounded&quot;:0};strokeWidth=1;fillColor=#dae8fc;strokeColor=#6c8ebf;fontSize=6;" parent="1" vertex="1">
          <mxGeometry x="502" y="500" width="10" height="45" as="geometry" />
        </mxCell>
        <mxCell id="QJh97lIsgSTJYA66oceY-6" value="&lt;font style=&quot;font-size: 6px;&quot;&gt;2. Prüfung ob alle Figuren auf dem Feld stehen und ob Augenzahl&amp;nbsp; = 6&lt;/font&gt;" style="text;html=1;strokeColor=none;fillColor=none;align=center;verticalAlign=middle;whiteSpace=wrap;rounded=0;fontSize=6;strokeWidth=1;" parent="1" vertex="1">
          <mxGeometry x="255" y="286" width="235" height="10" as="geometry" />
        </mxCell>
        <mxCell id="QJh97lIsgSTJYA66oceY-14" value="&lt;font style=&quot;font-size: 6px;&quot;&gt;2.1 Rückgabe, dass nicht alle Figuren auf dem Feld sind und Augenzahl = 6&amp;nbsp;&lt;/font&gt;" style="text;html=1;strokeColor=none;fillColor=none;align=center;verticalAlign=middle;whiteSpace=wrap;rounded=0;fontSize=6;strokeWidth=1;" parent="1" vertex="1">
          <mxGeometry x="250" y="333" width="254" height="10" as="geometry" />
        </mxCell>
        <mxCell id="m1vEcAskR3YBs9L6EBWT-17" value="alt" style="shape=umlFrame;whiteSpace=wrap;html=1;pointerEvents=0;strokeWidth=1;fontSize=6;" parent="1" vertex="1">
          <mxGeometry x="35" y="370" width="885" height="90" as="geometry" />
        </mxCell>
        <mxCell id="m1vEcAskR3YBs9L6EBWT-18" value="" style="endArrow=none;dashed=1;html=1;rounded=0;exitX=0;exitY=0.523;exitDx=0;exitDy=0;exitPerimeter=0;strokeWidth=1;entryX=1;entryY=0.537;entryDx=0;entryDy=0;entryPerimeter=0;fontSize=6;" parent="1" edge="1">
          <mxGeometry width="50" height="50" relative="1" as="geometry">
            <mxPoint x="35" y="428.71400000000006" as="sourcePoint" />
            <mxPoint x="920" y="430.366" as="targetPoint" />
          </mxGeometry>
        </mxCell>
        <mxCell id="m1vEcAskR3YBs9L6EBWT-19" value="" style="endArrow=classic;html=1;rounded=0;strokeWidth=1;fontSize=6;" parent="1" edge="1">
          <mxGeometry width="50" height="50" relative="1" as="geometry">
            <mxPoint x="252" y="365" as="sourcePoint" />
            <mxPoint x="632" y="365" as="targetPoint" />
          </mxGeometry>
        </mxCell>
        <mxCell id="m1vEcAskR3YBs9L6EBWT-21" value="&lt;font style=&quot;font-size: 6px;&quot;&gt;3. Prüfung ob das Startfeld frei ist&lt;/font&gt;" style="text;html=1;strokeColor=none;fillColor=none;align=center;verticalAlign=middle;whiteSpace=wrap;rounded=0;fontSize=6;strokeWidth=1;" parent="1" vertex="1">
          <mxGeometry x="350" y="355" width="177" height="10" as="geometry" />
        </mxCell>
        <mxCell id="m1vEcAskR3YBs9L6EBWT-20" value="" style="endArrow=open;html=1;rounded=0;dashed=1;dashPattern=8 8;strokeWidth=1;endFill=0;fontSize=6;" parent="1" edge="1">
          <mxGeometry width="50" height="50" relative="1" as="geometry">
            <mxPoint x="632" y="385" as="sourcePoint" />
            <mxPoint x="252" y="385" as="targetPoint" />
          </mxGeometry>
        </mxCell>
        <mxCell id="m1vEcAskR3YBs9L6EBWT-22" value="&lt;font style=&quot;font-size: 6px;&quot;&gt;3.1.1 Das Startfeld ist frei&amp;nbsp;&lt;/font&gt;" style="edgeLabel;html=1;align=center;verticalAlign=middle;resizable=0;points=[];fontSize=6;" parent="m1vEcAskR3YBs9L6EBWT-20" connectable="0" vertex="1">
          <mxGeometry x="-0.1979" relative="1" as="geometry">
            <mxPoint x="-8" y="-8" as="offset" />
          </mxGeometry>
        </mxCell>
        <mxCell id="m1vEcAskR3YBs9L6EBWT-24" value="" style="endArrow=open;html=1;rounded=0;strokeWidth=1;endFill=0;fontSize=6;" parent="1" edge="1">
          <mxGeometry width="50" height="50" relative="1" as="geometry">
            <mxPoint x="242" y="455" as="sourcePoint" />
            <mxPoint x="40" y="455" as="targetPoint" />
          </mxGeometry>
        </mxCell>
        <mxCell id="m1vEcAskR3YBs9L6EBWT-25" value="&lt;font style=&quot;font-size: 6px;&quot;&gt;3.2.1 Spielzug beendet&lt;/font&gt;" style="text;html=1;strokeColor=none;fillColor=none;align=center;verticalAlign=middle;whiteSpace=wrap;rounded=0;fontSize=6;strokeWidth=1;" parent="1" vertex="1">
          <mxGeometry x="57" y="443" width="180" height="10" as="geometry" />
        </mxCell>
        <mxCell id="m1vEcAskR3YBs9L6EBWT-27" value="" style="html=1;points=[[0,0,0,0,5],[0,1,0,0,-5],[1,0,0,0,5],[1,1,0,0,-5]];perimeter=orthogonalPerimeter;outlineConnect=0;targetShapes=umlLifeline;portConstraint=eastwest;newEdgeStyle={&quot;curved&quot;:0,&quot;rounded&quot;:0};strokeWidth=1;fillColor=#dae8fc;strokeColor=#6c8ebf;fontSize=6;" parent="1" vertex="1">
          <mxGeometry x="632" y="978" width="10" height="19" as="geometry" />
        </mxCell>
        <mxCell id="QJh97lIsgSTJYA66oceY-21" value="alt" style="shape=umlFrame;whiteSpace=wrap;html=1;pointerEvents=0;strokeWidth=1;fontSize=6;" parent="1" vertex="1">
          <mxGeometry x="20" y="320" width="927" height="690" as="geometry" />
        </mxCell>
        <mxCell id="m1vEcAskR3YBs9L6EBWT-29" value="" style="endArrow=open;html=1;rounded=0;dashed=1;dashPattern=8 8;strokeWidth=1;endFill=0;fontSize=6;" parent="1" edge="1">
          <mxGeometry width="50" height="50" relative="1" as="geometry">
            <mxPoint x="632" y="444" as="sourcePoint" />
            <mxPoint x="252" y="444" as="targetPoint" />
          </mxGeometry>
        </mxCell>
        <mxCell id="m1vEcAskR3YBs9L6EBWT-30" value="&lt;font style=&quot;font-size: 6px;&quot;&gt;3.2 Das Startfeld ist nicht frei&amp;nbsp;&lt;/font&gt;" style="edgeLabel;html=1;align=center;verticalAlign=middle;resizable=0;points=[];fontSize=6;" parent="m1vEcAskR3YBs9L6EBWT-29" connectable="0" vertex="1">
          <mxGeometry x="-0.1979" relative="1" as="geometry">
            <mxPoint x="-8" y="-8" as="offset" />
          </mxGeometry>
        </mxCell>
        <mxCell id="m1vEcAskR3YBs9L6EBWT-32" value="" style="endArrow=open;html=1;rounded=0;strokeWidth=1;endFill=0;fontSize=6;" parent="1" edge="1">
          <mxGeometry width="50" height="50" relative="1" as="geometry">
            <mxPoint x="242" y="869" as="sourcePoint" />
            <mxPoint x="40" y="869" as="targetPoint" />
          </mxGeometry>
        </mxCell>
        <mxCell id="m1vEcAskR3YBs9L6EBWT-35" value="&lt;font style=&quot;font-size: 6px;&quot;&gt;5.2.3 Spielzug beendet&lt;/font&gt;" style="text;html=1;strokeColor=none;fillColor=none;align=center;verticalAlign=middle;whiteSpace=wrap;rounded=0;fontSize=6;strokeWidth=1;" parent="1" vertex="1">
          <mxGeometry x="47" y="979" width="180" height="10" as="geometry" />
        </mxCell>
        <mxCell id="m1vEcAskR3YBs9L6EBWT-36" value="" style="endArrow=open;html=1;rounded=0;strokeWidth=1;endFill=0;fontSize=6;" parent="1" edge="1">
          <mxGeometry width="50" height="50" relative="1" as="geometry">
            <mxPoint x="242" y="995.67" as="sourcePoint" />
            <mxPoint x="40" y="995.67" as="targetPoint" />
          </mxGeometry>
        </mxCell>
        <mxCell id="m1vEcAskR3YBs9L6EBWT-39" value="" style="endArrow=open;html=1;curved=1;entryX=1;entryY=1;entryDx=0;entryDy=-5;entryPerimeter=0;strokeWidth=1;dashed=1;dashPattern=8 8;endFill=0;fontSize=6;" parent="1" edge="1">
          <mxGeometry width="50" height="50" relative="1" as="geometry">
            <mxPoint x="652" y="727" as="sourcePoint" />
            <mxPoint x="652" y="757" as="targetPoint" />
            <Array as="points">
              <mxPoint x="687" y="734" />
            </Array>
          </mxGeometry>
        </mxCell>
      </root>
    </mxGraphModel>
  </diagram>
</mxfile>
